<!DOCTYPE svg PUBLIC "-//W3C//DTD SVG 20010904//EN" "http://www.w3.org/TR/2001/REC-SVG-20010904/DTD/svg10.dtd">
<svg xmlns="http://www.w3.org/2000/svg" version="1.0" width="1024.000000pt" height="1024.000000pt" viewBox="0 0 1024.000000 1024.000000" preserveAspectRatio="xMidYMid meet">

<g transform="translate(0.000000,1024.000000) scale(0.100000,-0.100000)" fill="white" stroke="none">
<path d="M3260 6450 c-58 -15 -256 -68 -440 -117 -184 -50 -447 -120 -585 -156 -719 -189 -832 -220 -852 -233 -55 -35 -54 -11 -51 -817 l3 -744 27 -35 c55 -72 1 -69 1078 -66 l965 3 39 24 c80 50 76 12 76 677 0 568 -1 593 -19 615 l-19 24 -796 0 c-438 0 -796 3 -796 6 0 7 452 127 1075 284 618 156 605 151 605 220 0 33 -65 246 -91 296 -30 59 -59 62 -219 19z m6 -227 c74 -64 131 -120 127 -123 -5 -4 -50 -17 -101 -29 l-93 -22 -43 38 c-160 139 -222 199 -212 202 15 6 169 49 179 50 4 1 69 -52 143 -116z m-493 -128 c69 -60 126 -113 126 -116 1 -7 -206 -62 -218 -57 -12 4 -251 222 -251 228 0 7 191 59 207 57 6 -1 67 -51 136 -112z m-517 -135 c105 -95 123 -115 108 -121 -11 -4 -59 -19 -109 -32 l-90 -25 -50 46 c-27 25 -85 79 -127 119 l-77 72 42 11 c23 6 69 20 102 30 33 10 63 17 67 17 4 -1 64 -54 134 -117z m-621 -195 c43 -42 31 -112 -23 -134 -63 -26 -143 32 -128 94 16 65 104 88 151 40z m745 -515 c346 -197 406 -232 418 -248 24 -32 15 -70 -25 -98 -110 -76 -551 -324 -575 -324 -16 0 -37 9 -48 20 -19 19 -20 33 -20 364 l0 345 27 20 c17 14 34 19 47 15 12 -3 91 -45 176 -94z"/>
<path d="M4668 5565 c-15 -9 -31 -30 -38 -50 -32 -98 112 -163 180 -80 8 10 15 35 15 57 0 74 -84 112 -157 73z"/>
<path d="M8520 5135 l0 -445 85 0 85 0 0 108 c0 105 1 109 28 135 l27 26 84 -134 84 -135 98 0 99 0 -34 53 c-19 28 -73 110 -120 182 -83 126 -85 130 -68 150 10 11 54 61 97 110 44 50 88 100 99 113 l19 22 -100 0 -100 0 -85 -102 c-47 -57 -95 -112 -107 -122 l-21 -19 0 251 0 252 -85 0 -85 0 0 -445z"/>
<path d="M4094 5547 c-70 -18 -131 -56 -186 -115 -84 -89 -118 -183 -118 -323 0 -206 105 -363 282 -420 55 -17 84 -21 155 -17 102 5 156 27 229 91 48 42 104 141 104 184 0 20 -6 22 -81 25 -45 2 -84 1 -88 -2 -3 -3 -14 -21 -23 -42 -21 -45 -69 -83 -126 -98 -83 -22 -192 33 -237 120 -8 16 -20 60 -27 99 -21 125 19 257 95 312 56 40 104 52 163 39 66 -15 103 -45 131 -107 l24 -53 86 0 85 0 -7 37 c-18 99 -93 196 -188 243 -74 36 -190 48 -273 27z"/>
<path d="M6148 5475 l-3 -75 123 0 122 0 0 -355 0 -355 90 0 90 0 0 355 0 355 130 0 130 0 0 75 0 75 -339 0 -339 0 -4 -75z"/>
<path d="M5210 5331 c-48 -10 -72 -24 -109 -66 l-31 -36 0 46 0 45 -80 0 -80 0 0 -315 0 -315 85 0 85 0 0 195 c0 213 7 249 54 280 39 26 111 23 141 -5 33 -31 36 -52 38 -275 l2 -190 83 -3 82 -3 0 238 c0 230 -1 240 -24 289 -28 61 -74 99 -136 113 -50 12 -60 12 -110 2z"/>
<path d="M5803 5330 c-93 -20 -174 -86 -217 -179 -17 -38 -21 -64 -20 -151 0 -124 18 -174 84 -240 134 -134 379 -115 479 37 50 75 45 83 -47 83 -75 0 -79 -1 -100 -29 -43 -58 -133 -64 -193 -14 -29 25 -59 77 -59 103 0 6 76 10 221 10 l222 0 -5 88 c-6 106 -35 170 -102 229 -65 58 -170 83 -263 63z m143 -145 c22 -14 70 -102 62 -111 -3 -2 -66 -3 -141 -2 l-135 3 13 39 c17 49 32 64 81 81 42 15 86 11 120 -10z"/>
<path d="M7122 5329 c-56 -7 -116 -44 -127 -79 -11 -36 -27 -21 -23 23 2 23 0 43 -4 45 -5 1 -42 2 -83 2 l-75 0 0 -315 0 -315 85 0 85 0 0 183 c0 153 3 187 18 217 27 54 74 80 143 80 l59 0 0 79 c0 54 -4 80 -12 83 -7 2 -37 1 -66 -3z"/>
<path d="M7455 5330 c-63 -13 -90 -26 -130 -62 -40 -34 -74 -97 -75 -135 0 -22 4 -23 78 -23 77 0 77 0 92 33 22 47 80 73 129 58 49 -14 69 -37 77 -87 l6 -41 -107 -7 c-162 -10 -234 -45 -279 -133 -39 -78 -4 -189 73 -232 62 -34 152 -39 214 -12 26 11 58 32 71 46 l24 25 6 -35 7 -35 77 0 77 0 -2 227 c-2 126 -7 244 -13 263 -13 50 -72 115 -119 133 -49 20 -153 29 -206 17z m171 -417 c-9 -71 -59 -113 -133 -113 -101 0 -123 105 -30 145 18 8 63 14 101 15 l69 0 -7 -47z"/>
<path d="M8101 5330 c-156 -33 -249 -170 -239 -354 5 -98 30 -158 88 -216 65 -65 118 -85 225 -85 98 0 149 18 208 74 32 29 71 100 81 146 l7 30 -82 -2 c-81 -2 -82 -2 -95 -32 -17 -40 -69 -71 -119 -71 -86 0 -144 73 -145 180 0 79 16 124 56 159 28 25 43 31 82 31 58 0 104 -26 122 -69 l12 -31 80 0 80 0 -7 37 c-22 117 -116 195 -250 207 -33 3 -80 1 -104 -4z"/>
<path d="M4640 5005 l0 -315 85 0 85 0 0 315 0 315 -85 0 -85 0 0 -315z"/>
</g>
</svg>